Simulation
nRows=40
nColumns=15
endheader
time  TH_x TH_y TH_z SC_y  SC_z  SC_x  AC_y  AC_z  AC_x  GH_y  GH_z  GH_yy  EL_x  PS_y
2.8725  0.000000  0.000000  0.000000  -35.43008306322496  -0.7034752610490131  -24.11752237018689  38.12483085117021  23.705718980667054  15.510270697991348  35.09111275256737  6.5677213255347215  -28.155779761017612  14.043431218603033  120.000000
2.92995  0.000000  0.000000  0.000000  -35.494962675381224  -0.6288682247592184  -23.3463251242338  38.55451725734872  23.669705989828408  15.1583513414944  47.63072043359786  5.515407395163073  -37.83963185329719  14.40849025294078  120.000000
2.9874  0.000000  0.000000  0.000000  -35.61881902474893  -0.4732620688314429  -22.39720641075924  38.99504186832028  23.500592837823216  14.704924896279556  62.75910194500501  4.987427201460146  -50.575357582506435  14.8574174189385  120.000000
3.0448500000000003  0.000000  0.000000  0.000000  -35.7771363544513  -0.24024518956428226  -21.320618472946837  39.410233367007514  23.203237502193883  14.172232573469655  77.70929598221551  4.929260154280337  -63.630854673407676  15.34495019175479  120.000000
3.1023  0.000000  0.000000  0.000000  -35.94454710186411  0.056863919032026304  -20.168732993604852  39.78135172204682  22.79631152559562  13.586266019192566  89.90720660542478  5.182980209733236  -74.41062394344146  15.82878223843202  120.000000
3.15975  0.000000  0.000000  0.000000  -36.101762635367145  0.3956695984540746  -18.989044120531783  40.104214346933944  22.307066907661895  12.973950236621905  98.66597305200916  5.56994799784011  -82.16766502962165  16.2796933717756  120.000000
3.2172  0.000000  0.000000  0.000000  -36.23547278168004  0.7491414046339645  -17.82250854840652  40.386036109454395  21.76546699312813  12.358499852789272  104.5134850627119  5.961685507417544  -87.34602144791158  16.687933155474646  120.000000
3.2746500000000003  0.000000  0.000000  0.000000  -36.33574937367176  1.0915936874199956  -16.703806362917543  40.640824741256694  21.199033256975287  11.757334624400398  108.20136506248866  6.290017601879037  -90.60327950815645  17.06091783194689  120.000000
3.3321  0.000000  0.000000  0.000000  -36.395370927109795  1.4009029340677388  -15.660042088982832  40.88226468803742  20.6291754612293  11.18308286039339  110.34639725083957  6.530925683885521  -92.46474014730207  17.41418507900136  120.000000
3.38955  0.000000  0.000000  0.000000  -36.412222508654  1.6606370093271496  -14.708966275747567  41.11840152205603  20.070782188586314  10.64556374723633  111.39737548378146  6.6889146110701425  -93.30200959021938  17.763172439587034  120.000000
3.447  0.000000  0.000000  0.000000  -36.391164851019674  1.8633397204689324  -13.85994214960722  41.351463951957285  19.534755625617265  10.15043188428621  111.66812532128742  6.784674305128219  -93.3750484421351  18.117297859236274  120.000000
3.5044500000000003  0.000000  0.000000  0.000000  -36.34278793481845  2.0100693098344236  -13.116615555897782  41.57902980162043  19.029495330395754  9.699776118169902  111.38288853767996  6.845534999326588  -92.87912687156273  18.479005189575624  120.000000
3.5619  0.000000  0.000000  0.000000  -36.28007868466709  2.1054849554790747  -12.478009565184996  41.7930331704184  18.560713844149575  9.297224073302235  110.71224038347907  6.8973461280292465  -91.97536884513686  18.846387943048242  120.000000
3.61935  0.000000  0.000000  0.000000  -36.213237939013894  2.1588740976768293  -11.941809991068865  41.984762391216734  18.133814188776338  8.945931281921897  109.77741061498702  6.959517465624168  -90.78650521766235  19.216820652539145  120.000000
3.6768  0.000000  0.000000  0.000000  -36.14730403064378  2.1849263894886692  -11.507877548639563  42.1481096033626  17.754267885391975  8.646039017419271  108.65190183533932  7.043918439513935  -89.39137398918325  19.58904692332183  120.000000
3.7342500000000003  0.000000  0.000000  0.000000  -36.08265982020948  2.1971661908275864  -11.178231319725596  42.27578999702766  17.424208378390375  8.398589713937977  107.37489476675366  7.153330094440542  -87.833793571796  19.962860832974204  120.000000
3.7917  0.000000  0.000000  0.000000  -36.01583974668411  2.2039997342292548  -10.95629184549142  42.35892797630949  17.14082676302485  8.207751499270303  105.9493153071353  7.282504715217056  -86.11877735800633  20.33857140432111  120.000000
3.84915  0.000000  0.000000  0.000000  -35.940279322416465  2.209460067617196  -10.846489933228348  42.39050719239521  16.89782812117474  8.079677056153852  104.32127141016512  7.420818481449094  -84.19163620664892  20.716233915186923  120.000000
3.9066  0.000000  0.000000  0.000000  -35.847370708059096  2.2160331771956225  -10.854030161955558  42.36912286709989  16.688102655172074  8.020551710863906  102.358749716241  7.55531926071702  -81.91731174707513  21.09506155214235  120.000000
3.9640500000000003  0.000000  0.000000  0.000000  -35.72661794101053  2.225686524806841  -10.985106347233756  42.300802092426466  16.505316726507612  8.035753547104012  99.84887869192082  7.674702524433267  -79.07941531037405  21.47275199701328  120.000000
4.0215  0.000000  0.000000  0.000000  -35.56790659929246  2.2372736393925576  -11.246907750109747  42.196409720905294  16.343952862501894  8.130807962496586  96.51182024504861  7.774954800437419  -75.39901373636947  21.844728417741702  120.000000
4.07895  0.000000  0.000000  0.000000  -35.36451329859874  2.2465335745325623  -11.647716410189204  42.07069254332818  16.19876328023975  8.31202729694569  92.03051043486137  7.871741648037996  -70.57165656055682  22.203618591638268  120.000000
4.1364  0.000000  0.000000  0.000000  -35.11671317261201  2.2464337343766587  -12.196563956658254  41.94509135228297  16.06497054335017  8.585955384459911  86.12924920399767  8.019175819900267  -64.35441379759685  22.53813188369381  120.000000
4.19385  0.000000  0.000000  0.000000  -34.83389709448474  2.2259279277012936  -12.899964051229508  41.84747697160556  15.938525327074558  8.961860331144269  78.76390635724348  8.32080499734083  -56.75966114280035  22.832290001832884  120.000000
4.2513000000000005  0.000000  0.000000  0.000000  -34.536005867586326  2.168571979964775  -13.755300089061649  41.80321161145144  15.817277605247927  9.457289565508212  70.34327044261889  8.913555857000063  -48.272465897078334  23.067089955837897  120.000000
4.30875  0.000000  0.000000  0.000000  -34.24475981909547  2.0615995754056704  -14.748218008890854  41.834175221903834  15.707234142727513  10.09187630664579  61.70327156816165  9.925445100419255  -39.8128709851065  23.226500903158172  120.000000
4.3662  0.000000  0.000000  0.000000  -33.9703758037213  1.9052364621271178  -15.85415282403554  41.972595107159286  15.631917139647513  10.869992786827002  53.71344261950356  11.440877954464442  -32.328520089094624  23.310290236877115  120.000000
4.42365  0.000000  0.000000  0.000000  -33.72334376316004  1.7145940758650209  -17.031937745428458  42.2491448193465  15.626660742500928  11.786524190494502  46.861566363169  13.490282790710493  -26.364515466392948  23.3441239889534  120.000000
4.4811  0.000000  0.000000  0.000000  -33.52576843164001  1.52678441784115  -18.221280438046893  42.67570140982661  15.726796519512668  12.834232985239419  41.18646629020441  16.0606724009635  -21.979352447817945  23.376942424088842  120.000000
4.53855  0.000000  0.000000  0.000000  -33.423858325951535  1.3993031995628342  -19.350849418068115  43.25311391060916  15.960985453379372  13.996157168969297  36.51241200583314  19.119095542047166  -18.976241505845017  23.464741539210586  120.000000
4.596  0.000000  0.000000  0.000000  -33.47506759837655  1.3956185350215409  -20.34455798235584  43.972974041968925  16.340394170034727  15.248631023035822  32.65049145558598  22.603455855787065  -17.100700705457964  23.646578074605706  120.000000
4.65345  0.000000  0.000000  0.000000  -33.70293804901878  1.5658236660659193  -21.12509635561886  44.825116462946916  16.862122654285873  16.55388341220569  29.454322753874347  26.403918610304572  -16.10267781499628  23.91884989839664  120.000000
4.7109000000000005  0.000000  0.000000  0.000000  -34.09061435904438  1.9413720348561427  -21.61016830313257  45.78537378162285  17.51598083056417  17.867774507120103  26.806177086493104  30.36213116262433  -15.74848708625802  24.232467715628644  120.000000
4.76835  0.000000  0.000000  0.000000  -34.59207272152549  2.5376257134968077  -21.719062132529416  46.80337546722437  18.28543934273828  19.14006824738349  24.592414808635763  34.290543976607196  -15.818722059798823  24.51114921529578  120.000000
4.8258  0.000000  0.000000  0.000000  -35.152862461867535  3.347076667130295  -21.38836472674788  47.82731472499729  19.141444636041243  20.298737110532347  22.72304219180234  38.02220262829513  -16.151819961722417  24.67560127300625  120.000000
4.88325  0.000000  0.000000  0.000000  -35.743360083778285  4.337420081489927  -20.569663897093868  48.81228449577901  20.02510811445108  21.273281167040906  21.14775347792982  41.44653544221419  -16.667405190281738  24.672806875230954  120.000000
4.9407  0.000000  0.000000  0.000000  -36.365115394930676  5.460835829528145  -19.230389107860834  49.723435277667384  20.8479365510694  22.01523294790209  19.840739177888896  44.51750663754712  -17.347614423032226  24.482445847475415  120.000000
4.99815  0.000000  0.000000  0.000000  -37.044679043685036  6.663272786789242  -17.357298810321993  50.5459693416407  21.515866607573013  22.496822506403724  18.788385475331186  47.24282706786512  -18.206727705170533  24.109380516332276  120.000000
5.0556  0.000000  0.000000  0.000000  -37.81751170776179  7.89178916451905  -14.961191826669024  51.27906823748061  21.95292408796847  22.712596377237865  17.978858845220664  49.66199688986423  -19.257394464556235  23.575114396767233  120.000000
5.11305  0.000000  0.000000  0.000000  -38.712697960734054  9.095245951573954  -12.09013386450392  51.92238269871003  22.11750630774869  22.680843112997387  17.394888989240865  51.822731749249456  -20.48932947881907  22.914394129800066  120.000000
